<?xml version="1.0" standalone="no"?>
<!DOCTYPE svg PUBLIC "-//W3C//DTD SVG 20010904//EN"
 "http://www.w3.org/TR/2001/REC-SVG-20010904/DTD/svg10.dtd">
<svg version="1.0" xmlns="http://www.w3.org/2000/svg"
 width="1280.000000pt" height="1256.000000pt" viewBox="0 0 1280.000000 1256.000000"
 preserveAspectRatio="xMidYMid meet">
<g transform="translate(0.000000,1256.000000) scale(0.100000,-0.100000)"
fill="#000000" stroke="none">
<path d="M4395 12506 l-18 -53 85 -194 c385 -871 758 -1771 758 -1829 0 -15
-15 -24 -70 -40 -38 -11 -70 -23 -70 -25 0 -2 5 -26 11 -54 11 -54 7 -52 132
-67 32 -3 64 -13 72 -20 20 -20 77 -172 83 -221 5 -49 -6 -68 -46 -78 -109
-26 -102 -21 -102 -76 l0 -51 63 7 c34 4 66 10 71 12 4 3 6 25 2 49 -7 54 12
60 44 14 44 -61 220 -499 220 -546 0 -21 -11 -30 -72 -59 -40 -19 -78 -35 -84
-35 -22 0 -33 -70 -16 -96 13 -21 114 -44 188 -44 49 0 75 -4 83 -14 12 -14
87 -247 117 -360 15 -57 15 -59 -7 -82 -12 -13 -53 -35 -90 -50 l-69 -26 0
-49 0 -49 60 0 c33 0 60 4 60 9 0 5 -7 27 -15 50 -18 52 -9 57 69 41 49 -10
57 -15 61 -38 8 -40 28 -95 77 -212 74 -174 132 -351 121 -369 -7 -12 -33 -17
-89 -21 -88 -6 -157 -34 -162 -66 -2 -11 4 -36 13 -57 l15 -37 104 0 c123 0
127 -2 155 -94 35 -114 85 -626 63 -648 -24 -24 -214 -44 -532 -58 -292 -12
-715 -24 -2095 -60 -340 -9 -429 -15 -694 -46 -392 -45 -630 -76 -917 -119
-127 -19 -242 -35 -257 -35 -20 0 -36 13 -67 51 -51 65 -262 372 -624 909
-158 234 -300 444 -316 467 -24 35 -47 51 -123 86 l-94 44 -164 8 -164 7 -37
-39 -36 -38 68 -225 c37 -124 133 -439 213 -700 219 -713 230 -752 215 -766
-7 -7 -114 -42 -238 -79 -270 -79 -324 -98 -327 -116 -2 -8 12 -31 31 -53 l33
-38 202 -38 c236 -45 298 -60 311 -75 12 -15 -50 -230 -371 -1289 -95 -312
-100 -332 -94 -391 4 -34 10 -67 14 -74 12 -20 374 10 492 40 34 8 54 37 360
501 750 1141 665 1018 702 1018 49 0 383 -41 967 -119 l526 -71 514 -10 c595
-11 1536 -28 2187 -39 249 -4 456 -10 459 -14 19 -18 -58 -211 -185 -467 -149
-302 -129 -277 -233 -294 l-38 -7 0 -64 0 -64 58 -11 c147 -30 152 -32 152
-48 0 -8 -34 -116 -76 -238 -56 -163 -81 -225 -95 -229 -17 -6 -237 -45 -251
-45 -5 0 -8 -22 -8 -49 l0 -48 98 -35 c60 -22 98 -41 100 -51 4 -18 -69 -229
-139 -405 -27 -68 -49 -129 -49 -136 0 -8 -6 -19 -14 -25 -11 -9 -33 -5 -97
19 -45 16 -84 30 -86 30 -2 0 -3 -27 -3 -60 0 -40 4 -62 13 -65 6 -2 38 -11
70 -20 31 -8 57 -21 57 -28 0 -15 -160 -448 -172 -463 -5 -7 -34 -15 -65 -19
-84 -10 -83 -10 -83 -76 0 -58 1 -59 28 -59 48 0 57 -13 44 -57 -16 -52 -111
-246 -125 -255 -7 -4 -42 -8 -79 -8 l-66 0 -18 -52 -17 -52 38 -31 c21 -16 50
-40 64 -52 l26 -21 -162 -405 c-157 -391 -414 -1013 -602 -1456 -50 -117 -91
-221 -91 -231 0 -10 7 -34 15 -54 l15 -36 90 0 89 0 118 82 c65 45 120 83 122
85 3 2 -1 20 -8 39 -17 47 -5 59 41 39 l36 -15 112 69 113 68 160 254 c88 140
453 722 811 1294 359 572 833 1329 1055 1682 221 354 408 643 415 643 8 0 30
-14 51 -30 21 -17 48 -32 59 -35 12 -2 184 -12 382 -21 l361 -17 74 40 74 39
3 252 2 251 -41 28 c-40 26 -49 28 -293 44 -138 10 -266 18 -283 18 -24 1 -33
6 -33 17 0 9 105 188 234 398 l234 381 104 45 103 45 1160 6 1160 6 358 36
359 36 335 86 c315 80 343 89 454 146 162 83 262 149 342 227 65 65 67 68 67
118 0 50 -1 52 -58 101 -90 79 -171 127 -389 234 l-202 98 -338 72 c-249 52
-371 73 -463 79 -114 8 -2027 31 -2524 30 l-209 0 -138 61 -139 61 -240 384
c-133 211 -243 391 -246 399 -4 8 0 17 7 19 8 3 145 13 304 22 l290 17 43 29
42 29 0 248 0 248 -41 28 -42 27 -399 -7 -400 -8 -61 -53 c-34 -30 -69 -54
-77 -54 -9 0 -106 146 -239 363 -743 1199 -1954 3133 -2090 3337 -92 137 -134
171 -420 335 l-184 105 -87 0 -87 0 -18 -54z"/>
</g>
</svg>
